# xmcd
#
# Track frame offsets:
#	150
#	21181
#	36207
#	59726
#	79231
#	99883
#	121945
#	137709
#	153494
#	173082
#	195761
#	213019
#	229598
#
# Disc length: 4171 seconds
#
# Revision: 1
# Processed by: cddbd v1.5.2PL0 Copyright (c) Steve Scherf et al.
# Submitted via: audiograbber 1.83.01
#
DISCID=9f10490d
DTITLE=Stevie - One Bloke One Mandolin - Garage Songs
DYEAR=1900
DGENRE=Country
TTITLE0=Towcester
TTITLE1=Footplate Songs
TTITLE2=Highway Ghost
TTITLE3=Hobo Jones
TTITLE4=Mr Bike Builder
TTITLE5=Gallows Song
TTITLE6=A Thing of Perfect Beauty
TTITLE7=Like Billy the Kid
TTITLE8=Some Friends Never Change
TTITLE9=Bastardos!!
TTITLE10=Billy Palmer
TTITLE11=One Whisky More
TTITLE12=The Volunteer
EXTD=
EXTT0=
EXTT1=
EXTT2=
EXTT3=
EXTT4=
EXTT5=
EXTT6=
EXTT7=
EXTT8=
EXTT9=
EXTT10=
EXTT11=
EXTT12=
PLAYORDER=
